<svg version="1.1" xmlns="http://www.w3.org/2000/svg" xmlns:xlink="http://www.w3.org/1999/xlink" width="56.36245" height="29.78271" viewBox="0,0,56.36245,29.78271"><g transform="translate(-211.67524,-165.19081)"><g data-paper-data="{&quot;isPaintingLayer&quot;:true}" fill="#00b4ff" fill-rule="nonzero" stroke="#00b4ff" stroke-width="2.5" stroke-linejoin="miter" stroke-miterlimit="10" stroke-dasharray="" stroke-dashoffset="0" style="mix-blend-mode: normal"><path d="M266.27898,180.28011l-11.67564,11.67564l0,-23.59452z" data-paper-data="{&quot;index&quot;:null}" stroke-linecap="round"/><path d="M239.9609,175.01827c2.88829,0 5.22972,2.34142 5.22972,5.22971c0,2.88829 -2.34142,5.22972 -5.22971,5.22972c-2.88829,0 -5.22972,-2.34142 -5.22972,-5.22972c0,-2.88829 2.34143,-5.22971 5.22971,-5.22971z" data-paper-data="{&quot;index&quot;:null}" stroke-linecap="butt"/><path d="M225.10958,168.25313l0,23.59452l-11.67564,-11.67564z" data-paper-data="{&quot;index&quot;:null}" stroke-linecap="round"/><path d="M244.98173,180.13989c0,2.88829 -2.34143,5.22972 -5.22972,5.22972c-2.88829,0 -5.22971,-2.34143 -5.22971,-5.22972c0,-2.88829 2.34143,-5.22972 5.22972,-5.22971c2.88829,0 5.22971,2.34143 5.22971,5.22971z" data-paper-data="{&quot;index&quot;:null}" stroke-linecap="butt"/></g></g></svg>